<?xml version="1.0" standalone="no"?>
<!DOCTYPE svg PUBLIC "-//W3C//DTD SVG 20010904//EN"
 "http://www.w3.org/TR/2001/REC-SVG-20010904/DTD/svg10.dtd">
<svg version="1.0" xmlns="http://www.w3.org/2000/svg"
 width="240.000000pt" height="240.000000pt" viewBox="0 0 240.000000 240.000000"
 preserveAspectRatio="xMidYMid meet">
<metadata>
Created by potrace 1.14, written by Peter Selinger 2001-2017
</metadata>
<g transform="translate(0.000000,240.000000) scale(0.100000,-0.100000)"
fill="#000000" stroke="none">
<path d="M0 1200 l0 -1200 1200 0 1200 0 0 984 0 985 -32 -10 c-21 -6 -36 -5
-43 2 -13 13 11 29 48 29 l27 0 0 205 0 205 -1200 0 -1200 0 0 -1200z m2290
761 c0 -5 -9 -12 -20 -15 -11 -3 -30 -9 -41 -12 -15 -4 -20 -2 -17 7 4 12 28
21 71 28 4 0 7 -3 7 -8z m-220 -31 c0 -5 -5 -10 -11 -10 -5 0 -7 5 -4 10 3 6
8 10 11 10 2 0 4 -4 4 -10z m-90 -150 c13 0 8 -35 -7 -49 -10 -9 -13 -8 -13 8
0 14 -5 19 -15 15 -20 -8 -19 6 2 36 15 21 18 22 21 8 2 -10 7 -18 12 -18z
m-156 -57 c3 -8 1 -11 -5 -8 -5 4 -16 2 -23 -4 -10 -9 -15 -8 -20 5 -3 9 -4
19 -1 24 7 12 43 0 49 -17z m37 -6 c-13 -13 -26 -3 -16 12 3 6 11 8 17 5 6 -4
6 -10 -1 -17z m334 -257 c3 -5 1 -10 -4 -10 -6 0 -11 5 -11 10 0 6 2 10 4 10
3 0 8 -4 11 -10z m-125 -429 c0 -27 -55 -98 -89 -116 -17 -8 -45 -15 -64 -15
-35 0 -88 32 -75 46 4 4 14 2 21 -5 20 -16 93 -17 113 0 32 26 65 89 59 110
-6 18 -5 19 14 10 12 -7 21 -20 21 -30z m-267 -8 c-11 -78 -19 -107 -29 -110
-16 -5 -11 81 6 103 14 18 14 18 -2 5 -19 -14 -23 -5 -12 23 3 9 14 16 24 16
16 0 18 -6 13 -37z m-27 -141 c10 -7 24 -66 27 -122 3 -35 -30 -39 -43 -5 -12
31 -14 135 -2 135 4 0 12 -4 18 -8z m234 -32 c0 -5 -4 -10 -10 -10 -5 0 -10 5
-10 10 0 6 5 10 10 10 6 0 10 -4 10 -10z m-32 -32 c-4 -28 -57 -61 -78 -48
-20 13 -1 44 29 48 11 2 21 8 21 13 0 5 7 9 16 9 10 0 14 -7 12 -22z m-791
-194 c15 -4 44 -3 65 3 47 12 41 -1 -8 -17 -67 -22 -153 17 -159 72 -3 25 -2
25 36 -13 21 -21 51 -42 66 -45z m778 -350 c-27 -24 -55 -44 -62 -44 -6 0 -24
-11 -40 -23 -25 -22 -55 -34 -107 -44 -13 -2 -17 1 -13 12 4 8 2 17 -3 20 -20
12 -9 25 20 25 17 0 30 -4 30 -10 0 -26 82 8 86 35 5 36 66 76 80 54 3 -5 15
0 26 11 12 11 24 17 27 14 3 -3 -16 -26 -44 -50z"/>
</g>
</svg>
